# .PCD v0.7 - Point Cloud Data file format
VERSION 0.7
FIELDS x y z intensity
SIZE 4 4 4 4
TYPE F F F F
COUNT 1 1 1 1
WIDTH 479
HEIGHT 1
VIEWPOINT 0 0 0 1 0 0 0
POINTS 479
DATA ascii
-1.085447e-25 1.2732813e-24 1.4964365e-24 0
1.0386835 0.060560703 0.037644908 1
2.2063203 0.16846175 0.059677381 2
3.3564653 0.28067622 0.075831756 3
4.6467218 0.4163599 0.1423876 4
5.9320736 0.54074657 0.17315757 5
7.2519827 0.65825897 0.21017741 6
8.953989 0.79248941 0.24751318 7
9.9865923 0.86402899 0.2475425 8
11.030849 0.92875242 0.28879198 9
12.11141 0.9955948 0.34300515 10
13.189382 1.0529857 0.41250718 11
14.71813 1.1316382 0.4321931 12
15.883929 1.1767361 0.46694484 13
17.071255 1.2158402 0.54579157 14
18.348545 1.2741821 0.53579158 15
19.418835 1.3152306 0.58954543 16
20.519419 1.3747807 0.61224276 17
21.711782 1.3869216 0.643278 18
22.865391 1.3238373 0.72364801 19
24.079145 1.1075139 0.7599321 20
25.255548 0.66449952 0.77866209 21
26.195002 0.011276724 0.80898237 22
26.996529 -0.81146783 0.82556957 23
27.563921 -1.7330587 0.87909055 24
28.175009 -3.2631147 0.8534559 25
28.371027 -4.4948516 0.87735546 26
28.437855 -5.5716844 0.885158 27
28.402132 -7.7388268 0.84302956 28
28.349222 -8.8715401 0.83068675 29
28.266224 -11.553512 0.81580639 30
28.250559 -12.759447 0.81654888 31
28.27965 -13.984144 0.82630509 32
28.308874 -15.798837 0.71136814 33
28.429743 -18.449253 0.77357441 34
28.491573 -19.603104 0.7357263 35
28.562647 -21.022306 0.72107702 36
28.606884 -22.154478 0.72252089 37
28.672428 -23.497503 0.65394562 38
28.731733 -24.647255 0.72460908 39
28.845892 -26.592543 0.63461167 40
28.920458 -27.720169 0.6894359 41
28.994543 -28.836613 0.65409648 42
29.074722 -30.229717 0.66713756 43
29.135466 -31.361357 0.65198648 44
29.192604 -32.48304 0.65222406 45
29.227289 -33.608681 0.68830305 46
29.23373 -34.692509 0.66738153 47
29.23357 -37.142509 0.67775816 48
29.227772 -38.423603 0.69078451 49
29.225719 -39.458935 0.69441479 50
29.251101 -40.699863 0.66450882 51
29.273079 -42.171932 0.66681588 52
29.297136 -43.623447 0.66443485 53
29.362617 -45.757545 0.65635657 54
29.39146 -46.99786 0.66972631 55
29.407383 -48.113983 0.69268227 56
29.412922 -49.529282 0.66033584 57
29.40955 -50.617546 0.70014048 58
29.403164 -51.806793 0.65941226 59
29.390165 -52.864281 0.67097431 60
29.403143 -54.173641 0.65386724 61
29.415041 -55.390736 0.55786347 62
29.412739 -56.425987 0.53328419 63
29.473356 -57.55954 0.49065998 64
29.602654 -58.680183 0.55803466 65
29.836901 -59.815674 0.58283401 66
30.298567 -61.237553 0.59186685 67
30.805321 -62.337132 0.65439165 68
31.422407 -63.372643 0.64424908 69
32.315331 -64.576141 0.68912518 70
33.322311 -65.61731 0.72124207 71
34.197037 -66.399246 0.79738379 72
35.55917 -67.548325 0.82911193 73
36.425079 -68.357414 0.82083219 74
37.239601 -69.198395 0.8988986 75
37.969013 -70.129738 0.9367758 76
38.576607 -71.130493 0.96721649 77
39.293728 -72.733986 1.0728347 78
39.686939 -73.83049 1.1128331 79
40.137978 -75.539818 1.1759145 80
40.361652 -76.718811 1.1893486 81
40.517155 -77.8825 1.1812711 82
40.654972 -79.389229 1.2252008 83
40.720551 -80.632782 1.1930753 84
40.74725 -82.205002 1.2180023 85
40.753613 -83.714539 1.2041898 86
40.776588 -84.908531 1.224377 87
40.795631 -87.023186 1.3064616 88
40.823204 -88.167999 1.3349324 89
40.86581 -89.509438 1.2968879 90
40.899982 -90.569046 1.3038986 91
40.940948 -91.619743 1.3252255 92
40.998661 -92.68615 1.3145212 93
41.058338 -93.805763 1.3529483 94
41.134869 -94.963028 1.3879863 95
41.238602 -97.061852 1.3708606 96
41.35511 -99.584496 1.3576927 97
41.471336 -101.53522 1.3944633 98
41.573437 -103.795 1.4763181 99
41.622875 -105.00469 1.4331923 100
41.666782 -106.19687 1.4436123 101
41.730122 -107.35826 1.479398 102
41.793724 -108.83427 1.5276141 103
41.876469 -111.16202 1.5193512 104
41.935719 -112.66226 1.5552915 105
42.013752 -114.2652 1.5807232 106
42.092781 -116.17703 1.6072707 107
42.154011 -117.45557 1.6056432 108
42.204769 -118.72533 1.7028984 109
42.252838 -119.88496 1.6915144 110
42.300793 -121.01818 1.6623149 111
42.341454 -122.18247 1.7242198 112
42.386436 -123.30195 1.6717308 113
42.421177 -124.43929 1.7216039 114
42.473873 -125.61784 1.7889165 115
42.552795 -127.72934 1.8147507 116
42.633656 -129.26167 1.8199911 117
42.695057 -130.52882 1.8482721 118
42.845463 -134.22087 1.8714298 119
42.853821 -136.92773 1.9042975 120
42.803165 -139.44183 1.9310211 121
42.761017 -140.57408 1.8943379 122
42.66711 -142.03424 1.9428275 123
42.594856 -143.1998 1.9699664 124
42.533871 -144.37447 1.9777286 125
42.535248 -145.56732 1.9794499 126
42.581757 -146.77405 1.9644873 127
42.699982 -148.26047 1.9412326 128
43.284302 -150.94737 2.0357354 129
43.704628 -152.09155 2.098927 130
44.372566 -153.46832 2.0755258 131
45.145393 -154.71672 2.1342301 132
45.840252 -155.66122 2.198683 133
46.739597 -156.67126 2.2205904 134
47.440517 -157.38745 2.2975268 135
48.339191 -158.1983 2.3272922 136
49.343048 -159.13626 2.3491442 137
50.336052 -160.03543 2.4077353 138
51.421844 -161.13196 2.437453 139
52.155739 -161.88811 2.4649556 140
52.881794 -162.65923 2.4689045 141
53.627918 -163.44226 2.4709492 142
54.522827 -164.40422 2.4958856 143
55.551598 -165.51476 2.4927859 144
56.71315 -166.73001 2.4879358 145
57.955639 -167.84955 2.4826441 146
58.782272 -168.51337 2.4658344 147
59.670418 -169.15411 2.4851086 148
60.785728 -169.78632 2.4882019 149
61.780075 -170.21709 2.5435867 150
63.175682 -170.63254 2.58499 151
64.256752 -170.81358 2.6809714 152
65.39325 -170.89998 2.6958122 153
66.586746 -170.88808 2.7395096 154
67.777603 -170.8257 2.7322903 155
70.642906 -170.4494 2.7896399 156
72.074104 -170.24863 2.8299894 157
73.268135 -170.05997 2.8682902 158
74.512222 -169.91054 2.9035232 159
77.60656 -169.54553 2.9769394 160
79.17009 -169.41382 3.0184665 161
80.75219 -169.27371 3.118356 162
83.035393 -169.09634 3.1883626 163
84.364395 -169.01146 3.2205255 164
85.676712 -168.96318 3.2093234 165
88.681198 -168.91557 3.2581487 166
90.024109 -168.90701 3.3084207 167
91.38073 -168.92834 3.3062701 168
93.69223 -168.97437 3.3350191 169
96.34594 -169.05103 3.4460497 170
97.698975 -169.12498 3.4200256 171
99.078796 -169.21402 3.4757738 172
100.45081 -169.33382 3.5595012 173
101.76501 -169.54787 3.579664 174
103.04431 -169.78563 3.6340511 175
104.31628 -170.03773 3.6862147 176
107.24095 -170.45889 3.6765587 177
108.57282 -170.51791 3.7238576 178
109.94668 -170.53102 3.7945542 179
112.73488 -170.38858 3.8494341 180
115.87997 -170.0562 3.8483438 181
117.29556 -169.86641 3.9118643 182
119.27692 -169.55504 3.9641368 183
120.55463 -169.3495 4.0406833 184
122.12196 -169.14467 4.070457 185
123.27757 -169.00525 4.0893312 186
125.22838 -168.84702 4.1197729 187
126.52855 -168.74306 4.1618743 188
128.70644 -168.60054 4.2035966 189
130.03622 -168.53595 4.217998 190
131.45636 -168.42621 4.2393694 191
133.08426 -168.32828 4.3110905 192
134.2029 -168.26538 4.3280787 193
135.313 -168.19656 4.362711 194
136.90901 -168.13055 4.370966 195
137.95953 -168.06639 4.4287691 196
139.68523 -167.9749 4.4875445 197
140.69078 -167.93883 4.4618278 198
142.18344 -167.87631 4.4981103 199
143.19618 -167.87308 4.5289569 200
144.4689 -167.87796 4.5771885 201
146.36624 -168.12894 4.6036601 202
147.4958 -168.4191 4.6586409 203
148.57558 -168.88889 4.667685 204
150.04399 -170.02081 4.7678571 205
151.05397 -171.3372 4.8437428 206
151.5938 -172.35822 4.8654017 207
152.02478 -173.41264 4.8516717 208
152.34109 -174.87788 4.9450631 209
152.50916 -176.42747 4.9018764 210
152.55885 -177.69392 4.956285 211
152.54858 -179.67009 5.0068946 212
152.51346 -180.98473 5.0051856 213
152.5072 -181.99925 5.0242953 214
152.51294 -183.36685 5.0155473 215
152.55537 -185.01974 5.0750465 216
152.63383 -186.8942 5.0929046 217
152.72055 -188.0865 5.1077642 218
152.78046 -189.23369 5.1760793 219
152.90314 -190.82994 5.1320834 220
152.99455 -191.86581 5.2080107 221
153.07732 -193.0663 5.1667719 222
153.18855 -194.40656 5.1828442 223
153.45056 -196.66371 5.2505531 224
153.65443 -197.94034 5.2513232 225
153.86813 -199.26031 5.2979918 226
153.98517 -200.40004 5.2916079 227
153.88452 -201.77446 5.2844658 228
153.37985 -203.14828 5.3103757 229
152.7543 -204.02307 5.2685819 230
151.59761 -205.06885 5.2463493 231
150.54608 -205.64342 5.2186365 232
148.97668 -206.25224 5.2305007 233
147.90152 -206.35303 5.3908534 234
146.74989 -206.32228 5.3766799 235
145.74478 -206.25484 5.386631 236
144.75047 -206.09879 5.3947339 237
143.3278 -205.79443 5.3564014 238
141.18338 -205.11928 5.3077259 239
140.01576 -204.65067 5.2671547 240
139.09158 -204.20131 5.2434144 241
137.94127 -203.57748 5.202065 242
137.02422 -203.02902 5.1542077 243
136.10442 -202.42921 5.0955529 244
134.92984 -201.65062 5.0548019 245
133.74036 -200.8308 4.9795251 246
132.77623 -200.13467 4.9803977 247
131.80461 -199.4012 4.921309 248
130.57193 -198.48515 4.8898263 249
129.55882 -197.73682 4.8353524 250
128.02699 -196.58444 4.7849474 251
126.75639 -195.60489 4.6803322 252
125.45895 -194.62955 4.6004357 253
124.28189 -193.65329 4.5663309 254
123.42772 -192.90938 4.478725 255
122.5059 -192.07025 4.4537358 256
121.38206 -191.03644 4.3930225 257
120.62579 -190.27072 4.3742375 258
119.84602 -189.47629 4.3627286 259
119.17374 -188.65662 4.3153005 260
118.44987 -187.76262 4.2870941 261
117.788 -186.89479 4.229321 262
117.12721 -185.96072 4.230938 263
116.54117 -185.02217 4.1984544 264
116.00993 -184.15227 4.1636395 265
115.33827 -183.02597 4.135108 266
114.62122 -181.80643 4.0729537 267
113.85004 -180.61365 4.0151443 268
112.537 -178.85811 3.9323335 269
111.24641 -177.26004 3.8572378 270
110.59764 -176.44229 3.7679641 271
109.93845 -175.5686 3.8048368 272
109.28015 -174.71794 3.708545 273
108.34397 -173.63713 3.7116416 274
107.55765 -172.8446 3.6797459 275
106.4692 -171.95006 3.6157968 276
105.50844 -171.31978 3.6098158 277
104.47697 -170.77608 3.6007626 278
102.85154 -170.11116 3.5602818 279
101.72099 -169.81329 3.5239341 280
100.58984 -169.5638 3.460953 281
97.922234 -169.29073 3.3928921 282
95.512115 -169.20943 3.3038802 283
94.291763 -169.22691 3.2898834 284
93.091141 -169.26959 3.2041824 285
90.925507 -169.35414 3.2991459 286
89.687714 -169.39847 3.316596 287
88.451698 -169.42976 3.3011246 288
87.234909 -169.45853 3.285357 289
86.008522 -169.48854 3.2052176 290
84.174332 -169.52716 3.0647941 291
82.620132 -169.58817 3.1015093 292
81.358086 -169.64355 3.0685647 293
79.789581 -169.70491 3.0951419 294
78.502266 -169.77464 3.0139191 295
77.238205 -169.82468 3.0326352 296
75.9217 -169.86816 2.9777129 297
74.603279 -169.92455 2.9276967 298
72.181595 -170.04436 2.8110089 299
71.075981 -170.06496 2.7317698 300
69.263748 -170.1228 2.7537017 301
67.906128 -170.1179 2.6450682 302
66.657112 -170.04106 2.6532986 303
65.561401 -169.94656 2.6130545 304
64.450546 -169.80609 2.5545049 305
63.185669 -169.5959 2.518765 306
62.185654 -169.32433 2.4905126 307
61.192547 -168.89111 2.4723012 308
60.246033 -168.34598 2.4352851 309
59.190472 -167.64412 2.4687469 310
58.391174 -166.97859 2.4677463 311
57.457783 -166.13261 2.4655097 312
56.379356 -165.1282 2.4544406 313
55.021103 -163.72577 2.4633465 314
54.156818 -162.8533 2.4394751 315
53.341816 -161.9689 2.4141498 316
52.600254 -161.19975 2.4176161 317
51.643772 -160.20316 2.3962595 318
50.622551 -159.19138 2.3424151 319
49.750683 -158.3127 2.3106391 320
49.003582 -157.57826 2.2739708 321
48.25576 -156.84303 2.2190554 322
47.475681 -156.05696 2.1742568 323
46.145115 -154.62027 2.1245022 324
45.412762 -153.71761 2.1745467 325
44.255337 -151.87311 1.967209 326
43.722912 -150.73413 1.9806954 327
43.053604 -148.90434 1.9222931 328
42.733326 -147.61276 1.903743 329
42.538189 -146.36899 1.8176539 330
42.399242 -144.7643 1.929409 331
42.359818 -143.45959 1.9100006 332
42.36264 -141.50223 1.8805624 333
42.396549 -140.19565 1.7935055 334
42.450348 -138.5596 1.8730881 335
42.509987 -137.24692 1.8077838 336
42.53117 -135.56036 1.8870155 337
42.513828 -134.20285 1.8141322 338
42.493698 -132.4875 1.7862147 339
42.437824 -130.76514 1.7645408 340
42.370777 -129.38266 1.7460026 341
42.285339 -127.2879 1.7422713 342
42.223709 -125.87501 1.6673152 343
42.188896 -124.81727 1.7172793 344
42.162457 -123.1899 1.659606 345
42.154812 -121.97517 1.5429436 346
42.141232 -120.52589 1.4917636 347
42.090935 -119.15369 1.624034 348
42.093399 -118.15269 1.5836213 349
42.072273 -116.80928 1.5737373 350
42.04274 -115.25719 1.5359589 351
42.009899 -114.07186 1.4989604 352
41.971035 -113.05024 1.4894185 353
41.948551 -112.01989 1.4935704 354
41.91758 -110.93687 1.4743353 355
41.867527 -109.75167 1.5004293 356
41.831532 -108.69014 1.4488547 357
41.78067 -107.36757 1.4463408 358
41.750427 -106.06063 1.419664 359
41.746735 -104.86488 1.3827373 360
41.747616 -103.85293 1.3841203 361
41.758202 -102.21653 1.4425484 362
41.781364 -101.14466 1.3192024 363
41.788502 -99.687027 1.3290746 364
41.774521 -98.469696 1.3945844 365
41.742401 -97.282303 1.3660637 366
41.713009 -96.040359 1.3168229 367
41.669395 -94.764465 1.3431168 368
41.606075 -93.474876 1.3649184 369
41.546661 -91.850471 1.2718526 370
41.496937 -90.574142 1.1913369 371
41.420471 -89.024734 1.2088776 372
41.397633 -87.885941 1.1391903 373
41.351372 -86.805214 1.1636634 374
41.30719 -85.737488 1.1583713 375
41.25988 -84.680168 1.1987138 376
41.228451 -83.658554 1.1611165 377
41.205311 -82.634529 1.1440973 378
41.165298 -81.594635 1.1533067 379
41.135921 -80.558502 1.0852442 380
41.091438 -79.535278 1.1711273 381
41.036415 -78.082512 1.0671321 382
40.902611 -76.845474 1.0426798 383
40.690033 -75.808037 1.0436119 384
40.337322 -74.7696 1.0866923 385
39.853664 -73.732651 1.0071012 386
39.220955 -72.698189 0.97896653 387
38.445133 -71.701851 0.8906408 388
37.539268 -70.745918 0.82658058 389
36.389664 -69.604149 0.77139473 390
35.433441 -68.654808 0.71806514 391
34.502087 -67.684074 0.67060894 392
33.612175 -66.636559 0.6849072 393
32.779644 -65.535286 0.58344793 394
31.86356 -64.041252 0.58293599 395
31.278402 -62.763653 0.52853858 396
30.708725 -61.101276 0.45186856 397
30.334661 -59.728584 0.44903502 398
30.084185 -58.449402 0.37209436 399
29.913097 -57.159374 0.30973965 400
29.821136 -55.949108 0.4028354 401
29.72192 -54.846043 0.51890713 402
29.723686 -53.564232 0.42746502 403
29.68943 -52.242805 0.53304875 404
29.638391 -51.165592 0.54802442 405
29.635735 -50.122227 0.49164283 406
29.612621 -49.058102 0.51233923 407
29.588184 -47.980976 0.5240069 408
29.58288 -46.91534 0.49064964 409
29.555239 -45.78389 0.48748493 410
29.531893 -44.604572 0.45159495 411
29.491337 -43.47419 0.4509213 412
29.457689 -42.255047 0.45811978 413
29.396862 -41.208511 0.5007208 414
29.355171 -39.592937 0.4915517 415
29.317751 -38.468304 0.4926497 416
29.277847 -37.334167 0.50948024 417
29.195751 -35.888062 0.58225113 418
29.154722 -34.691299 0.52711213 419
29.12664 -33.480293 0.49980956 420
29.09123 -32.241383 0.52941996 421
29.052687 -30.961014 0.55112094 422
29.011639 -29.696678 0.56860149 423
28.958036 -28.400795 0.57302898 424
28.923788 -27.10153 0.47178516 425
28.857094 -25.815191 0.55534703 426
28.806032 -24.48522 0.6422919 427
28.757977 -23.154324 0.67998528 428
28.765514 -21.8717 0.56117207 429
28.755287 -20.646818 0.59007335 430
28.782099 -19.519794 0.5500083 431
28.794306 -18.462873 0.70365047 432
28.854904 -17.207878 0.71211904 433
28.893604 -16.172213 0.71174365 434
28.954905 -15.091535 0.72805679 435
28.988596 -14.008639 0.76361376 436
29.035921 -12.94466 0.73501009 437
29.068451 -11.586646 0.81213176 438
29.112146 -10.519357 0.78855538 439
29.153595 -9.4948645 0.7979328 440
29.182722 -8.258626 0.83095425 441
29.218182 -6.9896851 0.84352934 442
29.198153 -5.7930875 0.87982553 443
29.084621 -4.7906046 0.88020825 444
28.846745 -3.742023 0.89645737 445
28.377058 -2.557699 0.8810786 446
27.837742 -1.6950351 0.88340092 447
26.895569 -0.73189408 0.88506103 448
25.79826 -0.025948979 0.84020972 449
24.498388 0.50112867 0.76846176 450
23.512583 0.72937715 0.76421702 451
22.473131 0.86050737 0.73239046 452
21.126974 0.93893135 0.70320231 453
20.017681 0.91815251 0.66348648 454
18.872168 0.86770928 0.59089237 455
17.686674 0.79800272 0.59427339 456
16.477831 0.71899879 0.47761354 457
15.210993 0.64262605 0.50782537 458
13.973739 0.58087784 0.42708614 459
12.794794 0.52210319 0.44889313 460
11.728518 0.48119941 0.28952503 461
10.469073 0.40639964 0.30528542 462
9.0913248 0.31164742 0.24302608 463
7.717896 0.19249266 0.24929681 464
6.5491138 0.086412176 0.16430005 465
5.4154615 -0.022569325 0.14661102 466
4.3951263 -0.12663732 0.13145593 467
3.2123008 -0.26852304 0.097777292 468
1.8686944 -0.44293118 0.015179187 469
0.85573292 -0.58101737 0.01527519 470
-0.1548495 -0.71716952 -0.092892282 471
-1.4747927 -0.91541564 -0.086873226 472
-2.4705453 -1.0385306 -0.1080168 473
-3.6185439 -1.1927539 -0.14080313 474
-5.0369072 -1.3468746 -0.20438823 475
-6.2401366 -1.4578792 -0.21579182 476
-7.2712002 -1.5285856 -0.27318716 477
-8.3680944 -1.5249084 -0.33173224 478
