# .PCD v0.7 - Point Cloud Data file format
VERSION 0.7
FIELDS x y z intensity roll pitch yaw time
SIZE 4 4 4 4 4 4 4 8
TYPE F F F F F F F F
COUNT 1 1 1 1 1 1 1 1
WIDTH 479
HEIGHT 1
VIEWPOINT 0 0 0 1 0 0 0
POINTS 479
DATA ascii
-1.085447e-25 1.2732813e-24 1.4964365e-24 0 0.00064900494 -0.035726905 1.5268692e-30 1.7501236e+09
1.0386835 0.060560703 0.037644908 1 0.0069515114 -0.038593926 0.015383886 1.7501236e+09
2.2063203 0.16846175 0.059677381 2 0.0076985643 -0.040596213 0.033030305 1.7501236e+09
3.3564653 0.28067622 0.075831756 3 0.0069577186 -0.041639004 0.047747307 1.7501236e+09
4.6467218 0.4163599 0.1423876 4 0.0094098607 -0.045616932 0.059726994 1.7501236e+09
5.9320736 0.54074657 0.17315757 5 0.0061356695 -0.045316558 0.060806524 1.7501236e+09
7.2519827 0.65825897 0.21017741 6 0.0061552841 -0.045071483 0.056829493 1.7501236e+09
8.953989 0.79248941 0.24751318 7 0.0027250911 -0.043787464 0.049327318 1.7501236e+09
9.9865923 0.86402899 0.2475425 8 0.0023930771 -0.042067178 0.043543875 1.7501236e+09
11.030849 0.92875242 0.28879198 9 -0.0012222668 -0.044485506 0.036362235 1.7501236e+09
12.11141 0.9955948 0.34300515 10 -0.0027120674 -0.044294942 0.029616687 1.7501236e+09
13.189382 1.0529857 0.41250718 11 -0.0041214842 -0.038365614 0.026924144 1.7501236e+09
14.71813 1.1316382 0.4321931 12 -0.0026323656 -0.040126022 0.022236444 1.7501236e+09
15.883929 1.1767361 0.46694484 13 0.00079657405 -0.051442277 0.016593834 1.7501236e+09
17.071255 1.2158402 0.54579157 14 0.000430277 -0.042311583 0.013607105 1.7501236e+09
18.348545 1.2741821 0.53579158 15 0.002121072 -0.042997785 0.0124166 1.7501236e+09
19.418835 1.3152306 0.58954543 16 0.00011238976 -0.043986578 0.009675066 1.7501236e+09
20.519419 1.3747807 0.61224276 17 -0.00063867815 -0.047668193 0.0070634359 1.7501236e+09
21.711782 1.3869216 0.643278 18 -0.0032238485 -0.041472599 -0.0059348755 1.7501236e+09
22.865391 1.3238373 0.72364801 19 -0.0068626599 -0.045915704 -0.043073904 1.7501236e+09
24.079145 1.1075139 0.7599321 20 -0.0066731223 -0.047019091 -0.11709142 1.7501236e+09
25.255548 0.66449952 0.77866209 21 -0.0096983267 -0.041529506 -0.24427739 1.7501236e+09
26.195002 0.011276724 0.80898237 22 0.0055348938 -0.03548079 -0.39788216 1.7501236e+09
26.996529 -0.81146783 0.82556957 23 0.0068320879 -0.036355801 -0.58861035 1.7501236e+09
27.563921 -1.7330587 0.87909055 24 0.013309019 -0.038870033 -0.77298617 1.7501236e+09
28.175009 -3.2631147 0.8534559 25 0.0084369751 -0.015572344 -1.0519016 1.7501236e+09
28.371027 -4.4948516 0.87735546 26 -0.00093207794 -0.012771442 -1.2439219 1.7501236e+09
28.437855 -5.5716844 0.885158 27 0.0067187948 -0.0050463555 -1.3736404 1.7501236e+09
28.402132 -7.7388268 0.84302956 28 0.0086193765 0.0026136057 -1.5416362 1.7501236e+09
28.349222 -8.8715401 0.83068675 29 0.010317898 0.0019403921 -1.5869129 1.7501236e+09
28.266224 -11.553512 0.81580639 30 0.011418331 0.0021243356 -1.6184747 1.7501236e+09
28.250559 -12.759447 0.81654888 31 0.016647566 0.0031815376 -1.6110379 1.7501236e+09
28.27965 -13.984144 0.82630509 32 0.013677733 0.0047476604 -1.6012027 1.7501236e+09
28.308874 -15.798837 0.71136814 33 0.013371365 0.0009421244 -1.5896693 1.7501236e+09
28.429743 -18.449253 0.77357441 34 0.0080080107 0.0013377613 -1.5718833 1.7501236e+09
28.491573 -19.603104 0.7357263 35 0.011468482 0.0024497993 -1.5684264 1.7501236e+09
28.562647 -21.022306 0.72107702 36 0.018606789 0.0028940192 -1.5643591 1.7501236e+09
28.606884 -22.154478 0.72252089 37 0.021815468 0.0017124881 -1.5604367 1.7501236e+09
28.672428 -23.497503 0.65394562 38 0.023934221 -0.0038445268 -1.5556182 1.7501236e+09
28.731733 -24.647255 0.72460908 39 0.033315707 0.00078913069 -1.5542988 1.7501236e+09
28.845892 -26.592543 0.63461167 40 0.032992534 -0.0048394511 -1.5505044 1.7501236e+09
28.920458 -27.720169 0.6894359 41 0.029972736 0.00047917161 -1.5490502 1.7501236e+09
28.994543 -28.836613 0.65409648 42 0.030197851 -0.0018920919 -1.5476694 1.7501236e+09
29.074722 -30.229717 0.66713756 43 0.026239531 -0.01028204 -1.5501424 1.7501236e+09
29.135466 -31.361357 0.65198648 44 0.024473254 -0.0099859042 -1.5524232 1.7501236e+09
29.192604 -32.48304 0.65222406 45 0.025123026 -0.0056969402 -1.5553757 1.7501236e+09
29.227289 -33.608681 0.68830305 46 0.02909755 -0.0080714589 -1.5611483 1.7501236e+09
29.23373 -34.692509 0.66738153 47 0.03973031 -0.010086752 -1.5699266 1.7501236e+09
29.23357 -37.142509 0.67775816 48 0.04448365 -0.0067361719 -1.5884885 1.7501236e+09
29.227772 -38.423603 0.69078451 49 0.040644713 -0.0041754288 -1.5991278 1.7501236e+09
29.225719 -39.458935 0.69441479 50 0.041104738 -0.0023055449 -1.6030583 1.7501236e+09
29.251101 -40.699863 0.66450882 51 0.033490717 -0.0046454472 -1.6027248 1.7501236e+09
29.273079 -42.171932 0.66681588 52 0.029453721 0.0067879381 -1.5999714 1.7501236e+09
29.297136 -43.623447 0.66443485 53 0.029442517 -0.0034600394 -1.5937105 1.7501236e+09
29.362617 -45.757545 0.65635657 54 0.022384427 -0.01142879 -1.5878339 1.7501236e+09
29.39146 -46.99786 0.66972631 55 0.02155526 -0.012693041 -1.586063 1.7501236e+09
29.407383 -48.113983 0.69268227 56 0.027702183 -0.013294175 -1.5850272 1.7501236e+09
29.412922 -49.529282 0.66033584 57 0.038713984 -0.017329667 -1.5862006 1.7501236e+09
29.40955 -50.617546 0.70014048 58 0.044889685 -0.014518463 -1.5874928 1.7501236e+09
29.403164 -51.806793 0.65941226 59 0.052669991 -0.0099853948 -1.5910228 1.7501236e+09
29.390165 -52.864281 0.67097431 60 0.053733252 -0.0075772777 -1.5979216 1.7501236e+09
29.403143 -54.173641 0.65386724 61 0.042934198 -0.010779736 -1.6066631 1.7501236e+09
29.415041 -55.390736 0.55786347 62 0.03047723 0.017066315 -1.6107879 1.7501236e+09
29.412739 -56.425987 0.53328419 63 0.023711968 0.030900171 -1.6112813 1.7501236e+09
29.473356 -57.55954 0.49065998 64 0.018382072 0.027776945 -1.5897176 1.7501236e+09
29.602654 -58.680183 0.55803466 65 0.022703847 -0.0071327263 -1.5451846 1.7501236e+09
29.836901 -59.815674 0.58283401 66 0.022847995 -0.033156168 -1.4787146 1.7501236e+09
30.298567 -61.237553 0.59186685 67 0.027253764 -0.029581018 -1.377521 1.7501236e+09
30.805321 -62.337132 0.65439165 68 0.029386099 -0.02627792 -1.2800744 1.7501236e+09
31.422407 -63.372643 0.64424908 69 0.027279116 -0.027502866 -1.1836866 1.7501236e+09
32.315331 -64.576141 0.68912518 70 0.032245569 -0.027612772 -1.0648841 1.7501236e+09
33.322311 -65.61731 0.72124207 71 0.025824472 -0.037255868 -0.95234966 1.7501236e+09
34.197037 -66.399246 0.79738379 72 0.016204529 -0.043989968 -0.88031816 1.7501236e+09
35.55917 -67.548325 0.82911193 73 -0.0044481219 -0.031508043 -0.82077968 1.7501236e+09
36.425079 -68.357414 0.82083219 74 -0.0036231675 -0.032692447 -0.8084178 1.7501236e+09
37.239601 -69.198395 0.8988986 75 -0.0074542398 -0.043425538 -0.83146554 1.7501236e+09
37.969013 -70.129738 0.9367758 76 -0.00087604491 -0.039486572 -0.8856383 1.7501236e+09
38.576607 -71.130493 0.96721649 77 0.011987747 -0.047355998 -0.95922583 1.7501236e+09
39.293728 -72.733986 1.0728347 78 0.03412782 -0.052345268 -1.0741014 1.7501236e+09
39.686939 -73.83049 1.1128331 79 0.039940145 -0.054167636 -1.1542587 1.7501236e+09
40.137978 -75.539818 1.1759145 80 0.046165518 -0.039752781 -1.2646998 1.7501236e+09
40.361652 -76.718811 1.1893486 81 0.046476532 -0.020340694 -1.3336669 1.7501236e+09
40.517155 -77.8825 1.1812711 82 0.04762511 -0.018130239 -1.3918644 1.7501236e+09
40.654972 -79.389229 1.2252008 83 0.049089294 -0.034863383 -1.4536296 1.7501236e+09
40.720551 -80.632782 1.1930753 84 0.056585759 -0.029173182 -1.493062 1.7501236e+09
40.74725 -82.205002 1.2180023 85 0.061752517 -0.01377059 -1.5323552 1.7501236e+09
40.753613 -83.714539 1.2041898 86 0.062916182 -0.021632077 -1.5635117 1.7501236e+09
40.776588 -84.908531 1.224377 87 0.058371585 -0.017645624 -1.578768 1.7501236e+09
40.795631 -87.023186 1.3064616 88 0.059772883 -0.017101131 -1.583074 1.7501236e+09
40.823204 -88.167999 1.3349324 89 0.059552174 -0.010926399 -1.5814921 1.7501236e+09
40.86581 -89.509438 1.2968879 90 0.061535027 -0.014676388 -1.5769012 1.7501236e+09
40.899982 -90.569046 1.3038986 91 0.060677838 -0.01774843 -1.5725502 1.7501236e+09
40.940948 -91.619743 1.3252255 92 0.062095985 -0.014141461 -1.5696422 1.7501236e+09
40.998661 -92.68615 1.3145212 93 0.062436428 -0.016351588 -1.5631647 1.7501236e+09
41.058338 -93.805763 1.3529483 94 0.063792229 -0.016610671 -1.5545303 1.7501236e+09
41.134869 -94.963028 1.3879863 95 0.059959941 -0.018352147 -1.5514444 1.7501236e+09
41.238602 -97.061852 1.3708606 96 0.065612756 -0.018154709 -1.5490586 1.7501236e+09
41.35511 -99.584496 1.3576927 97 0.065107845 -0.021464359 -1.5527339 1.7501236e+09
41.471336 -101.53522 1.3944633 98 0.059972197 -0.022538247 -1.5528998 1.7501236e+09
41.573437 -103.795 1.4763181 99 0.058945321 -0.01112272 -1.5558594 1.7501236e+09
41.622875 -105.00469 1.4331923 100 0.061401673 -0.019306134 -1.5575768 1.7501236e+09
41.666782 -106.19687 1.4436123 101 0.064895183 -0.021818424 -1.5593586 1.7501236e+09
41.730122 -107.35826 1.479398 102 0.057575159 -0.023510678 -1.5594668 1.7501236e+09
41.793724 -108.83427 1.5276141 103 0.057094309 -0.011743649 -1.5608152 1.7501236e+09
41.876469 -111.16202 1.5193512 104 0.061107598 -0.02485011 -1.5633534 1.7501236e+09
41.935719 -112.66226 1.5552915 105 0.060060974 -0.026785577 -1.5611023 1.7501236e+09
42.013752 -114.2652 1.5807232 106 0.057441805 -0.018937966 -1.5604001 1.7501236e+09
42.092781 -116.17703 1.6072707 107 0.05838684 -0.020496083 -1.5607301 1.7501236e+09
42.154011 -117.45557 1.6056432 108 0.058205292 -0.017869193 -1.56183 1.7501236e+09
42.204769 -118.72533 1.7028984 109 0.058821924 -0.011594054 -1.5615503 1.7501236e+09
42.252838 -119.88496 1.6915144 110 0.059404079 -0.019465243 -1.5618058 1.7501236e+09
42.300793 -121.01818 1.6623149 111 0.060499929 -0.022180799 -1.5626761 1.7501236e+09
42.341454 -122.18247 1.7242198 112 0.058024216 -0.013771476 -1.5633709 1.7501236e+09
42.386436 -123.30195 1.6717308 113 0.05824231 -0.021064039 -1.5627341 1.7501236e+09
42.421177 -124.43929 1.7216039 114 0.059439342 -0.022803407 -1.5625404 1.7501236e+09
42.473873 -125.61784 1.7889165 115 0.058461349 -0.019364694 -1.5624115 1.7501236e+09
42.552795 -127.72934 1.8147507 116 0.06024538 -0.025463259 -1.5647984 1.7501236e+09
42.633656 -129.26167 1.8199911 117 0.054416068 -0.023427963 -1.5621526 1.7501236e+09
42.695057 -130.52882 1.8482721 118 0.050478432 -0.015475249 -1.5631713 1.7501236e+09
42.845463 -134.22087 1.8714298 119 0.045892723 -0.021693651 -1.5727575 1.7501236e+09
42.853821 -136.92773 1.9042975 120 0.044784993 -0.017222464 -1.5945694 1.7501236e+09
42.803165 -139.44183 1.9310211 121 0.03805577 -0.013411161 -1.6224552 1.7501236e+09
42.761017 -140.57408 1.8943379 122 0.031886425 -0.015116729 -1.6366621 1.7501236e+09
42.66711 -142.03424 1.9428275 123 0.033250127 -0.018971533 -1.6543472 1.7501236e+09
42.594856 -143.1998 1.9699664 124 0.031337328 -0.023310008 -1.6613904 1.7501236e+09
42.533871 -144.37447 1.9777286 125 0.035979312 -0.014366464 -1.6556888 1.7501236e+09
42.535248 -145.56732 1.9794499 126 0.029631553 -0.007851325 -1.6352719 1.7501236e+09
42.581757 -146.77405 1.9644873 127 0.027882464 0.0003321222 -1.6095213 1.7501236e+09
42.699982 -148.26047 1.9412326 128 0.028462 -0.0050409227 -1.5653436 1.7501236e+09
43.284302 -150.94737 2.0357354 129 0.029579662 -0.030081023 -1.4178914 1.7501236e+09
43.704628 -152.09155 2.098927 130 0.028708179 -0.029288439 -1.3422937 1.7501236e+09
44.372566 -153.46832 2.0755258 131 0.020291271 -0.030365817 -1.2461735 1.7501236e+09
45.145393 -154.71672 2.1342301 132 0.012679866 -0.055281792 -1.1514231 1.7501236e+09
45.840252 -155.66122 2.198683 133 0.0030963954 -0.043686528 -1.0775141 1.7501236e+09
46.739597 -156.67126 2.2205904 134 -0.006837524 -0.040125344 -0.99113876 1.7501236e+09
47.440517 -157.38745 2.2975268 135 -0.011319068 -0.044371188 -0.93257481 1.7501236e+09
48.339191 -158.1983 2.3272922 136 -0.026519284 -0.041157879 -0.87152863 1.7501237e+09
49.343048 -159.13626 2.3491442 137 -0.020567141 -0.033143934 -0.82712245 1.7501237e+09
50.336052 -160.03543 2.4077353 138 -0.02754638 -0.031397525 -0.80551726 1.7501237e+09
51.421844 -161.13196 2.437453 139 -0.013684724 -0.026316606 -0.81254154 1.7501237e+09
52.155739 -161.88811 2.4649556 140 -0.015283988 -0.030780504 -0.82053238 1.7501237e+09
52.881794 -162.65923 2.4689045 141 -0.0083865654 -0.027831011 -0.82710147 1.7501237e+09
53.627918 -163.44226 2.4709492 142 -0.0079495246 -0.022843491 -0.83727175 1.7501237e+09
54.522827 -164.40422 2.4958856 143 -0.0047796718 -0.018829694 -0.84795284 1.7501237e+09
55.551598 -165.51476 2.4927859 144 -0.011515302 -0.013356864 -0.8595317 1.7501237e+09
56.71315 -166.73001 2.4879358 145 -0.0053582895 -0.0047024861 -0.85316521 1.7501237e+09
57.955639 -167.84955 2.4826441 146 -0.0060103787 -0.006009452 -0.81280792 1.7501237e+09
58.782272 -168.51337 2.4658344 147 -0.0078259269 -0.0043548103 -0.77566755 1.7501237e+09
59.670418 -169.15411 2.4851086 148 -0.0055160811 0.0033115169 -0.72649145 1.7501237e+09
60.785728 -169.78632 2.4882019 149 -0.008142814 0.00011368272 -0.64687705 1.7501237e+09
61.780075 -170.21709 2.5435867 150 -0.0063704685 -0.023806917 -0.56526798 1.7501237e+09
63.175682 -170.63254 2.58499 151 0.0080555016 -0.050094668 -0.42711079 1.7501237e+09
64.256752 -170.81358 2.6809714 152 0.014907138 -0.051576309 -0.32300207 1.7501237e+09
65.39325 -170.89998 2.6958122 153 0.015057753 -0.044625293 -0.22411045 1.7501237e+09
66.586746 -170.88808 2.7395096 154 0.0072360188 -0.042286191 -0.13835436 1.7501237e+09
67.777603 -170.8257 2.7322903 155 0.0027072192 -0.037310664 -0.070715025 1.7501237e+09
70.642906 -170.4494 2.7896399 156 -0.016177319 -0.032855012 0.049032882 1.7501237e+09
72.074104 -170.24863 2.8299894 157 -0.01678182 -0.030564202 0.077521488 1.7501237e+09
73.268135 -170.05997 2.8682902 158 -0.024255736 -0.032872241 0.087715484 1.7501237e+09
74.512222 -169.91054 2.9035232 159 -0.019948378 -0.037275035 0.092713408 1.7501237e+09
77.60656 -169.54553 2.9769394 160 -0.021827307 -0.043793134 0.08196754 1.7501237e+09
79.17009 -169.41382 3.0184665 161 -0.021047393 -0.040271293 0.070569336 1.7501237e+09
80.75219 -169.27371 3.118356 162 -0.021484904 -0.041621864 0.058790471 1.7501237e+09
83.035393 -169.09634 3.1883626 163 -0.032777011 -0.04055661 0.041322656 1.7501237e+09
84.364395 -169.01146 3.2205255 164 -0.035165526 -0.029773055 0.02976417 1.7501237e+09
85.676712 -168.96318 3.2093234 165 -0.037995059 -0.01678491 0.016606959 1.7501237e+09
88.681198 -168.91557 3.2581487 166 -0.024804987 -0.028130965 -0.0045217806 1.7501237e+09
90.024109 -168.90701 3.3084207 167 -0.028423673 -0.027095757 -0.015417285 1.7501237e+09
91.38073 -168.92834 3.3062701 168 -0.026855282 -0.03026421 -0.027498083 1.7501237e+09
93.69223 -168.97437 3.3350191 169 -0.025480917 -0.025807753 -0.044152055 1.7501237e+09
96.34594 -169.05103 3.4460497 170 -0.027140107 -0.029216873 -0.064076215 1.7501237e+09
97.698975 -169.12498 3.4200256 171 -0.028677091 -0.033691794 -0.074404255 1.7501237e+09
99.078796 -169.21402 3.4757738 172 -0.032340657 -0.040559974 -0.089209206 1.7501237e+09
100.45081 -169.33382 3.5595012 173 -0.032984212 -0.033349771 -0.11331462 1.7501237e+09
101.76501 -169.54787 3.579664 174 -0.030883422 -0.028745424 -0.14775981 1.7501237e+09
103.04431 -169.78563 3.6340511 175 -0.02305948 -0.030170454 -0.17425533 1.7501237e+09
104.31628 -170.03773 3.6862147 176 -0.014440303 -0.043255657 -0.19201124 1.7501237e+09
107.24095 -170.45889 3.6765587 177 0.007203477 -0.031818911 -0.1607397 1.7501237e+09
108.57282 -170.51791 3.7238576 178 0.0055917436 -0.032834828 -0.12253097 1.7501237e+09
109.94668 -170.53102 3.7945542 179 0.0045658178 -0.030325899 -0.082997896 1.7501237e+09
112.73488 -170.38858 3.8494341 180 -0.0089379167 -0.044564266 -0.0040702214 1.7501237e+09
115.87997 -170.0562 3.8483438 181 -0.013808992 -0.031846147 0.058013059 1.7501237e+09
117.29556 -169.86641 3.9118643 182 -0.0098211523 -0.02526403 0.081130318 1.7501237e+09
119.27692 -169.55504 3.9641368 183 -0.020485334 -0.033018187 0.10482845 1.7501237e+09
120.55463 -169.3495 4.0406833 184 -0.03126901 -0.032014757 0.10743148 1.7501237e+09
122.12196 -169.14467 4.070457 185 -0.037298672 -0.015694456 0.096604109 1.7501237e+09
123.27757 -169.00525 4.0893312 186 -0.040994532 -0.029146658 0.086264096 1.7501237e+09
125.22838 -168.84702 4.1197729 187 -0.036387078 -0.021278102 0.066317432 1.7501237e+09
126.52855 -168.74306 4.1618743 188 -0.039967857 -0.028477514 0.056082062 1.7501237e+09
128.70644 -168.60054 4.2035966 189 -0.039665964 -0.026754035 0.039378494 1.7501237e+09
130.03622 -168.53595 4.217998 190 -0.037712332 -0.025662744 0.034850553 1.7501237e+09
131.45636 -168.42621 4.2393694 191 -0.039280426 -0.027371055 0.033897117 1.7501237e+09
133.08426 -168.32828 4.3110905 192 -0.03724486 -0.03205948 0.030595643 1.7501237e+09
134.2029 -168.26538 4.3280787 193 -0.032574009 -0.031719379 0.029357124 1.7501237e+09
135.313 -168.19656 4.362711 194 -0.030169182 -0.031074299 0.027061369 1.7501237e+09
136.90901 -168.13055 4.370966 195 -0.028433582 -0.036654022 0.023955515 1.7501237e+09
137.95953 -168.06639 4.4287691 196 -0.025174584 -0.036613457 0.022244146 1.7501237e+09
139.68523 -167.9749 4.4875445 197 -0.023971686 -0.028827826 0.019982766 1.7501237e+09
140.69078 -167.93883 4.4618278 198 -0.023633858 -0.031474054 0.017159514 1.7501237e+09
142.18344 -167.87631 4.4981103 199 -0.026476247 -0.037549771 0.0092170322 1.7501237e+09
143.19618 -167.87308 4.5289569 200 -0.022641936 -0.035229135 0.0002745754 1.7501237e+09
144.4689 -167.87796 4.5771885 201 -0.023969308 -0.039075229 -0.026010925 1.7501237e+09
146.36624 -168.12894 4.6036601 202 -0.025383202 -0.041465186 -0.11263194 1.7501237e+09
147.4958 -168.4191 4.6586409 203 -0.029839341 -0.038216945 -0.19706739 1.7501237e+09
148.57558 -168.88889 4.667685 204 -0.026866332 -0.030202659 -0.3066833 1.7501237e+09
150.04399 -170.02081 4.7678571 205 -0.0046558511 -0.064785883 -0.53193009 1.7501237e+09
151.05397 -171.3372 4.8437428 206 0.01910077 -0.064687006 -0.74931854 1.7501237e+09
151.5938 -172.35822 4.8654017 207 0.013663969 -0.036647055 -0.90195328 1.7501237e+09
152.02478 -173.41264 4.8516717 208 -0.0048934962 -0.039073002 -1.0515486 1.7501237e+09
152.34109 -174.87788 4.9450631 209 0.0075987261 -0.054225158 -1.2358586 1.7501237e+09
152.50916 -176.42747 4.9018764 210 0.012550431 -0.032520741 -1.3722119 1.7501237e+09
152.55885 -177.69392 4.956285 211 0.019196771 -0.025988735 -1.4582982 1.7501237e+09
152.54858 -179.67009 5.0068946 212 0.023052273 -0.019368991 -1.5492496 1.7501237e+09
152.51346 -180.98473 5.0051856 213 0.026717944 -0.013418049 -1.5882043 1.7501237e+09
152.5072 -181.99925 5.0242953 214 0.028685424 -0.015186071 -1.5998069 1.7501237e+09
152.51294 -183.36685 5.0155473 215 0.035313439 -0.016054574 -1.5989636 1.7501237e+09
152.55537 -185.01974 5.0750465 216 0.034287538 -0.011445146 -1.586022 1.7501237e+09
152.63383 -186.8942 5.0929046 217 0.035784572 -0.017236819 -1.5715977 1.7501237e+09
152.72055 -188.0865 5.1077642 218 0.029470459 -0.011372455 -1.5619154 1.7501237e+09
152.78046 -189.23369 5.1760793 219 0.033458535 -0.017654916 -1.5549541 1.7501237e+09
152.90314 -190.82994 5.1320834 220 0.029072832 -0.021782639 -1.5428755 1.7501237e+09
152.99455 -191.86581 5.2080107 221 0.032128051 -0.020362481 -1.5352733 1.7501237e+09
153.07732 -193.0663 5.1667719 222 0.025345329 -0.020438405 -1.5315881 1.7501237e+09
153.18855 -194.40656 5.1828442 223 0.023069814 -0.020833865 -1.5332569 1.7501237e+09
153.45056 -196.66371 5.2505531 224 0.016424226 -0.014311111 -1.5064626 1.7501237e+09
153.65443 -197.94034 5.2513232 225 0.0093086418 -0.012936246 -1.4825633 1.7501237e+09
153.86813 -199.26031 5.2979918 226 0.0068893251 -0.013963453 -1.4655044 1.7501237e+09
153.98517 -200.40004 5.2916079 227 0.0038975296 -0.02231878 -1.4858985 1.7501237e+09
153.88452 -201.77446 5.2844658 228 -0.0017783422 -0.01656723 -1.6074739 1.7501237e+09
153.37985 -203.14828 5.3103757 229 -0.0013578725 -0.018231854 -1.8013828 1.7501237e+09
152.7543 -204.02307 5.2685819 230 0.00090317812 -0.01852092 -1.9708047 1.7501237e+09
151.59761 -205.06885 5.2463493 231 0.013102915 -0.0012733999 -2.2124946 1.7501237e+09
150.54608 -205.64342 5.2186365 232 0.016512804 0.012080541 -2.4002175 1.7501237e+09
148.97668 -206.25224 5.2305007 233 -0.041361686 -0.027786637 -2.6748097 1.7501237e+09
147.90152 -206.35303 5.3908534 234 -0.033807416 -0.092795238 -2.8517694 1.7501237e+09
146.74989 -206.32228 5.3766799 235 -0.0152548 -0.041612908 -2.9748099 1.7501237e+09
145.74478 -206.25484 5.386631 236 -0.013093539 -0.01799649 -3.0755644 1.7501237e+09
144.75047 -206.09879 5.3947339 237 -0.0023131536 -0.012762906 3.1158915 1.7501237e+09
143.3278 -205.79443 5.3564014 238 -0.0023768486 -0.0093966424 3.0059214 1.7501237e+09
141.18338 -205.11928 5.3077259 239 -0.0015505841 0.011144582 2.8679233 1.7501237e+09
140.01576 -204.65067 5.2671547 240 -0.0057682618 0.016654907 2.8002074 1.7501237e+09
139.09158 -204.20131 5.2434144 241 -0.011115821 0.016776426 2.7420478 1.7501237e+09
137.94127 -203.57748 5.202065 242 -0.012056096 0.023791052 2.6771195 1.7501237e+09
137.02422 -203.02902 5.1542077 243 -0.014177427 0.02019966 2.6326547 1.7501237e+09
136.10442 -202.42921 5.0955529 244 -0.01078866 0.020901738 2.5945616 1.7501237e+09
134.92984 -201.65062 5.0548019 245 -0.013519161 0.025343539 2.5575967 1.7501237e+09
133.74036 -200.8308 4.9795251 246 -0.009563799 0.026997199 2.5288527 1.7501237e+09
132.77623 -200.13467 4.9803977 247 -0.01448883 0.025795409 2.5077722 1.7501237e+09
131.80461 -199.4012 4.921309 248 -0.0093043828 0.032130055 2.4932635 1.7501237e+09
130.57193 -198.48515 4.8898263 249 -0.0085029313 0.029457128 2.4800398 1.7501237e+09
129.55882 -197.73682 4.8353524 250 -0.0088552944 0.034129769 2.4743242 1.7501237e+09
128.02699 -196.58444 4.7849474 251 -0.0061351703 0.027424244 2.4672534 1.7501237e+09
126.75639 -195.60489 4.6803322 252 -0.012641584 0.031126516 2.4584734 1.7501237e+09
125.45895 -194.62955 4.6004357 253 -0.027683482 0.026741786 2.4438655 1.7501237e+09
124.28189 -193.65329 4.5663309 254 -0.029589962 0.030623162 2.4262655 1.7501237e+09
123.42772 -192.90938 4.478725 255 -0.027368428 0.034039225 2.4129212 1.7501237e+09
122.5059 -192.07025 4.4537358 256 -0.026118569 0.031261425 2.3956573 1.7501237e+09
121.38206 -191.03644 4.3930225 257 -0.032288034 0.024491291 2.3689699 1.7501237e+09
120.62579 -190.27072 4.3742375 258 -0.031795621 0.027235931 2.3460932 1.7501237e+09
119.84602 -189.47629 4.3627286 259 -0.037152946 0.02434529 2.3199968 1.7501237e+09
119.17374 -188.65662 4.3153005 260 -0.027600197 0.020416059 2.2935987 1.7501237e+09
118.44987 -187.76262 4.2870941 261 -0.029849404 0.016953686 2.2623675 1.7501237e+09
117.788 -186.89479 4.229321 262 -0.026823493 0.019131588 2.2275534 1.7501237e+09
117.12721 -185.96072 4.230938 263 -0.035614647 0.019101046 2.1904221 1.7501237e+09
116.54117 -185.02217 4.1984544 264 -0.032037359 0.014742673 2.1574059 1.7501237e+09
116.00993 -184.15227 4.1636395 265 -0.034161218 0.01347934 2.1306729 1.7501237e+09
115.33827 -183.02597 4.135108 266 -0.032595359 0.016581014 2.1062555 1.7501237e+09
114.62122 -181.80643 4.0729537 267 -0.027614594 0.029289119 2.0982332 1.7501237e+09
113.85004 -180.61365 4.0151443 268 -0.021285165 0.028995425 2.114166 1.7501237e+09
112.537 -178.85811 3.9323335 269 -0.019226251 0.020970339 2.1554034 1.7501237e+09
111.24641 -177.26004 3.8572378 270 -0.026520288 0.025776936 2.1866877 1.7501237e+09
110.59764 -176.44229 3.7679641 271 -0.029238673 0.019607157 2.1907649 1.7501237e+09
109.93845 -175.5686 3.8048368 272 -0.027645599 0.02215107 2.1897073 1.7501237e+09
109.28015 -174.71794 3.708545 273 -0.024693087 0.0085470527 2.1939471 1.7501237e+09
108.34397 -173.63713 3.7116416 274 -0.021043759 0.026762266 2.2232919 1.7501237e+09
107.55765 -172.8446 3.6797459 275 -0.013285626 0.021904403 2.2695422 1.7501237e+09
106.4692 -171.95006 3.6157968 276 -0.010657444 0.012020122 2.3477793 1.7501237e+09
105.50844 -171.31978 3.6098158 277 -0.0012199483 -0.002462093 2.4294565 1.7501237e+09
104.47697 -170.77608 3.6007626 278 -0.0024961792 0.013131342 2.5134261 1.7501237e+09
102.85154 -170.11116 3.5602818 279 0.007841412 0.024545548 2.6429224 1.7501237e+09
101.72099 -169.81329 3.5239341 280 0.0068705059 0.027720751 2.7260127 1.7501237e+09
100.58984 -169.5638 3.460953 281 0.0132406 0.018117735 2.8056798 1.7501237e+09
97.922234 -169.29073 3.3928921 282 0.016987873 0.025628937 2.956208 1.7501237e+09
95.512115 -169.20943 3.3038802 283 0.023334241 0.015262095 3.045851 1.7501237e+09
94.291763 -169.22691 3.2898834 284 0.022369813 0.011525903 3.0793781 1.7501237e+09
93.091141 -169.26959 3.2041824 285 0.021613181 0.0073406287 3.1058478 1.7501237e+09
90.925507 -169.35414 3.2991459 286 0.016996492 0.0096505536 3.1301422 1.7501237e+09
89.687714 -169.39847 3.316596 287 0.017214736 0.012706669 3.1343353 1.7501237e+09
88.451698 -169.42976 3.3011246 288 0.015539643 0.01389687 3.1345856 1.7501237e+09
87.234909 -169.45853 3.285357 289 0.018154718 0.011919033 3.1355503 1.7501237e+09
86.008522 -169.48854 3.2052176 290 0.021096729 0.013511719 3.1357384 1.7501237e+09
84.174332 -169.52716 3.0647941 291 0.021719484 0.0087944986 3.1363211 1.7501237e+09
82.620132 -169.58817 3.1015093 292 0.013787326 0.0013472635 3.1361978 1.7501237e+09
81.358086 -169.64355 3.0685647 293 0.010128926 0.017195556 3.1383796 1.7501237e+09
79.789581 -169.70491 3.0951419 294 0.011336183 0.019700637 3.1414566 1.7501237e+09
78.502266 -169.77464 3.0139191 295 0.0060720579 0.027991828 -3.1391721 1.7501237e+09
77.238205 -169.82468 3.0326352 296 0.006622538 0.017218595 -3.1371002 1.7501237e+09
75.9217 -169.86816 2.9777129 297 0.0061088912 0.022832623 -3.1353266 1.7501237e+09
74.603279 -169.92455 2.9276967 298 0.0073821726 0.027347529 -3.1329157 1.7501237e+09
72.181595 -170.04436 2.8110089 299 0.0014462094 0.026163343 -3.1352587 1.7501237e+09
71.075981 -170.06496 2.7317698 300 0.0055817883 0.02146256 -3.1360426 1.7501237e+09
69.263748 -170.1228 2.7537017 301 0.004760874 0.021878369 3.136668 1.7501237e+09
67.906128 -170.1179 2.6450682 302 0.0017498595 0.015733853 3.1176388 1.7501237e+09
66.657112 -170.04106 2.6532986 303 0.0024869863 0.01503729 3.0874639 1.7501237e+09
65.561401 -169.94656 2.6130545 304 -0.0023889823 0.016454807 3.0581217 1.7501237e+09
64.450546 -169.80609 2.5545049 305 -0.0013295189 0.023077725 3.0280471 1.7501237e+09
63.185669 -169.5959 2.518765 306 -0.0064187907 0.033836551 2.9873562 1.7501237e+09
62.185654 -169.32433 2.4905126 307 -0.00298765 0.037169967 2.9343977 1.7501238e+09
61.192547 -168.89111 2.4723012 308 0.0011247722 0.039873555 2.8499966 1.7501238e+09
60.246033 -168.34598 2.4352851 309 0.0016829649 0.022977417 2.7514126 1.7501238e+09
59.190472 -167.64412 2.4687469 310 -0.0074844379 -0.010980089 2.6440477 1.7501238e+09
58.391174 -166.97859 2.4677463 311 -0.0023492072 -0.022175474 2.5647094 1.7501238e+09
57.457783 -166.13261 2.4655097 312 -0.0062704589 -0.016792756 2.4730849 1.7501238e+09
56.379356 -165.1282 2.4544406 313 -0.015743623 -0.007963662 2.4000947 1.7501238e+09
55.021103 -163.72577 2.4633465 314 -0.017649677 -0.0011910003 2.3405075 1.7501238e+09
54.156818 -162.8533 2.4394751 315 -0.021203488 0.0069218795 2.3219159 1.7501238e+09
53.341816 -161.9689 2.4141498 316 -0.017809464 0.0096083777 2.3129358 1.7501238e+09
52.600254 -161.19975 2.4176161 317 -0.020181108 0.0071173874 2.3086786 1.7501238e+09
51.643772 -160.20316 2.3962595 318 -0.0038329095 0.021506635 2.3102803 1.7501238e+09
50.622551 -159.19138 2.3424151 319 -0.003269294 0.020227257 2.319351 1.7501238e+09
49.750683 -158.3127 2.3106391 320 -0.0056077652 0.021201748 2.3220341 1.7501238e+09
49.003582 -157.57826 2.2739708 321 0.0054897643 0.022358328 2.3304086 1.7501238e+09
48.25576 -156.84303 2.2190554 322 0.0032990773 0.02528815 2.3374412 1.7501238e+09
47.475681 -156.05696 2.1742568 323 0.013428522 0.028994804 2.3338983 1.7501238e+09
46.145115 -154.62027 2.1245022 324 0.0098840185 0.031894643 2.3041661 1.7501238e+09
45.412762 -153.71761 2.1745467 325 -0.0039157313 0.031367857 2.2590344 1.7501238e+09
44.255337 -151.87311 1.967209 326 -0.026357571 0.034463808 2.1351733 1.7501238e+09
43.722912 -150.73413 1.9806954 327 -0.032253422 0.021178121 2.0505817 1.7501238e+09
43.053604 -148.90434 1.9222931 328 -0.041880533 0.027281526 1.935339 1.7501238e+09
42.733326 -147.61276 1.903743 329 -0.049505927 0.025349474 1.8546199 1.7501238e+09
42.538189 -146.36899 1.8176539 330 -0.052119419 0.0052935136 1.780692 1.7501238e+09
42.399242 -144.7643 1.929409 331 -0.048607286 -0.010982831 1.6925414 1.7501238e+09
42.359818 -143.45959 1.9100006 332 -0.050693303 -0.0021583054 1.6398138 1.7501238e+09
42.36264 -141.50223 1.8805624 333 -0.051448368 0.012486158 1.5783334 1.7501238e+09
42.396549 -140.19565 1.7935055 334 -0.052268602 0.012028599 1.5503236 1.7501238e+09
42.450348 -138.5596 1.8730881 335 -0.053880438 0.0021711728 1.5222666 1.7501238e+09
42.509987 -137.24692 1.8077838 336 -0.055657934 0.0012222739 1.5123461 1.7501238e+09
42.53117 -135.56036 1.8870155 337 -0.057175953 0.00062397216 1.5201849 1.7501238e+09
42.513828 -134.20285 1.8141322 338 -0.059127659 0.0080951201 1.5277616 1.7501238e+09
42.493698 -132.4875 1.7862147 339 -0.056318767 0.01095588 1.5411072 1.7501238e+09
42.437824 -130.76514 1.7645408 340 -0.055104651 0.010329513 1.5553511 1.7501238e+09
42.370777 -129.38266 1.7460026 341 -0.06430123 0.0060981102 1.5621687 1.7501238e+09
42.285339 -127.2879 1.7422713 342 -0.071100794 0.0065782745 1.567113 1.7501238e+09
42.223709 -125.87501 1.6673152 343 -0.078861088 0.0099599017 1.565847 1.7501238e+09
42.188896 -124.81727 1.7172793 344 -0.078719474 0.015443081 1.5623941 1.7501238e+09
42.162457 -123.1899 1.659606 345 -0.076153465 0.014038594 1.5580778 1.7501238e+09
42.154812 -121.97517 1.5429436 346 -0.073418066 0.013722217 1.5565588 1.7501238e+09
42.141232 -120.52589 1.4917636 347 -0.071238056 0.0075268014 1.552552 1.7501238e+09
42.090935 -119.15369 1.624034 348 -0.075134858 0.009331095 1.5487655 1.7501238e+09
42.093399 -118.15269 1.5836213 349 -0.072859213 0.012178909 1.5451829 1.7501238e+09
42.072273 -116.80928 1.5737373 350 -0.071765251 0.0084858052 1.5477368 1.7501238e+09
42.04274 -115.25719 1.5359589 351 -0.070644945 0.010259984 1.551946 1.7501238e+09
42.009899 -114.07186 1.4989604 352 -0.071609206 0.0079271104 1.5570121 1.7501238e+09
41.971035 -113.05024 1.4894185 353 -0.075494342 0.0078590289 1.5582876 1.7501238e+09
41.948551 -112.01989 1.4935704 354 -0.072806731 0.0082149068 1.560155 1.7501238e+09
41.91758 -110.93687 1.4743353 355 -0.07620094 0.0052145151 1.5626044 1.7501238e+09
41.867527 -109.75167 1.5004293 356 -0.076818369 0.0078379102 1.5648918 1.7501238e+09
41.831532 -108.69014 1.4488547 357 -0.076396748 0.0030821327 1.5685767 1.7501238e+09
41.78067 -107.36757 1.4463408 358 -0.078930065 0.0020318544 1.5678622 1.7501238e+09
41.750427 -106.06063 1.419664 359 -0.079434045 0.0018735103 1.5609782 1.7501238e+09
41.746735 -104.86488 1.3827373 360 -0.080047555 0.0074724881 1.5530435 1.7501238e+09
41.747616 -103.85293 1.3841203 361 -0.080269434 0.0059514525 1.5451102 1.7501238e+09
41.758202 -102.21653 1.4425484 362 -0.081351876 0.0064381706 1.5332993 1.7501238e+09
41.781364 -101.14466 1.3192024 363 -0.082272634 2.3800943e-05 1.5289078 1.7501238e+09
41.788502 -99.687027 1.3290746 364 -0.083515741 -0.0016597075 1.5289454 1.7501238e+09
41.774521 -98.469696 1.3945844 365 -0.080204703 0.0076034679 1.5331202 1.7501238e+09
41.742401 -97.282303 1.3660637 366 -0.081777081 0.00093597214 1.5425012 1.7501238e+09
41.713009 -96.040359 1.3168229 367 -0.08087226 0.0053428202 1.5530546 1.7501238e+09
41.669395 -94.764465 1.3431168 368 -0.079432562 0.0081424294 1.5617721 1.7501238e+09
41.606075 -93.474876 1.3649184 369 -0.078817986 0.0090600653 1.5684155 1.7501238e+09
41.546661 -91.850471 1.2718526 370 -0.074700654 0.0080468822 1.5747757 1.7501238e+09
41.496937 -90.574142 1.1913369 371 -0.079500891 0.0096709095 1.5759926 1.7501238e+09
41.420471 -89.024734 1.2088776 372 -0.08209198 0.010588993 1.5747781 1.7501238e+09
41.397633 -87.885941 1.1391903 373 -0.076551512 0.011733672 1.5738373 1.7501238e+09
41.351372 -86.805214 1.1636634 374 -0.079404466 0.0056927335 1.5735515 1.7501238e+09
41.30719 -85.737488 1.1583713 375 -0.078900494 0.0072982456 1.571885 1.7501238e+09
41.25988 -84.680168 1.1987138 376 -0.07993643 0.0071995715 1.5696037 1.7501238e+09
41.228451 -83.658554 1.1611165 377 -0.078412011 0.0034849786 1.5704081 1.7501238e+09
41.205311 -82.634529 1.1440973 378 -0.081554994 0.0041722888 1.565555 1.7501238e+09
41.165298 -81.594635 1.1533067 379 -0.081770174 0.0038311351 1.5642049 1.7501238e+09
41.135921 -80.558502 1.0852442 380 -0.085569903 0.0080325184 1.5625676 1.7501238e+09
41.091438 -79.535278 1.1711273 381 -0.087926231 0.0077646272 1.5627081 1.7501238e+09
41.036415 -78.082512 1.0671321 382 -0.082740583 0.011391311 1.5752683 1.7501238e+09
40.902611 -76.845474 1.0426798 383 -0.0797759 0.014160746 1.6051725 1.7501238e+09
40.690033 -75.808037 1.0436119 384 -0.074061193 0.017224265 1.6518651 1.7501238e+09
40.337322 -74.7696 1.0866923 385 -0.066588059 -0.0044854651 1.7335676 1.7501238e+09
39.853664 -73.732651 1.0071012 386 -0.060070861 0.01516166 1.8331852 1.7501238e+09
39.220955 -72.698189 0.97896653 387 -0.051555458 0.031404566 1.9445995 1.7501238e+09
38.445133 -71.701851 0.8906408 388 -0.046452183 0.039617497 2.0649135 1.7501238e+09
37.539268 -70.745918 0.82658058 389 -0.038987581 0.048210531 2.1751485 1.7501238e+09
36.389664 -69.604149 0.77139473 390 -0.027027264 0.031295799 2.2731853 1.7501238e+09
35.433441 -68.654808 0.71806514 391 -0.016077647 0.023047943 2.3122687 1.7501238e+09
34.502087 -67.684074 0.67060894 392 -0.020634621 0.024657615 2.3143344 1.7501238e+09
33.612175 -66.636559 0.6849072 393 -0.026642481 0.018308979 2.2853787 1.7501238e+09
32.779644 -65.535286 0.58344793 394 -0.032914188 0.025873676 2.2364242 1.7501238e+09
31.86356 -64.041252 0.58293599 395 -0.04836414 0.02651515 2.141216 1.7501238e+09
31.278402 -62.763653 0.52853858 396 -0.047358666 0.019941593 2.0538461 1.7501238e+09
30.708725 -61.101276 0.45186856 397 -0.043430749 0.010728762 1.9510239 1.7501238e+09
30.334661 -59.728584 0.44903502 398 -0.041286189 0.02800709 1.8749536 1.7501238e+09
30.084185 -58.449402 0.37209436 399 -0.037346859 0.01759238 1.8083727 1.7501238e+09
29.913097 -57.159374 0.30973965 400 -0.045327958 0.023473457 1.7432047 1.7501238e+09
29.821136 -55.949108 0.4028354 401 -0.032428734 0.0097387014 1.6842393 1.7501238e+09
29.72192 -54.846043 0.51890713 402 -0.03760767 -0.036340367 1.6398176 1.7501238e+09
29.723686 -53.564232 0.42746502 403 -0.039640181 -0.037659537 1.5977409 1.7501238e+09
29.68943 -52.242805 0.53304875 404 -0.056110412 -0.020921819 1.5709331 1.7501238e+09
29.638391 -51.165592 0.54802442 405 -0.066221021 0.011286827 1.5594269 1.7501238e+09
29.635735 -50.122227 0.49164283 406 -0.06824635 0.0052033933 1.5556544 1.7501238e+09
29.612621 -49.058102 0.51233923 407 -0.067878343 0.0043174042 1.5524132 1.7501238e+09
29.588184 -47.980976 0.5240069 408 -0.063586846 -0.0019189389 1.5544839 1.7501238e+09
29.58288 -46.91534 0.49064964 409 -0.054637406 0.0040958743 1.5596609 1.7501238e+09
29.555239 -45.78389 0.48748493 410 -0.048795022 0.004733691 1.5617309 1.7501238e+09
29.531893 -44.604572 0.45159495 411 -0.046326619 0.0047465698 1.564407 1.7501238e+09
29.491337 -43.47419 0.4509213 412 -0.047429189 0.0034731848 1.5669276 1.7501238e+09
29.457689 -42.255047 0.45811978 413 -0.045537837 -0.0036263491 1.567691 1.7501238e+09
29.396862 -41.208511 0.5007208 414 -0.05641526 -0.0022598547 1.5647734 1.7501238e+09
29.355171 -39.592937 0.4915517 415 -0.052715842 -0.0079719378 1.5651604 1.7501238e+09
29.317751 -38.468304 0.4926497 416 -0.056591369 -0.007102544 1.5659324 1.7501238e+09
29.277847 -37.334167 0.50948024 417 -0.058245175 -0.0046701734 1.5663244 1.7501238e+09
29.195751 -35.888062 0.58225113 418 -0.065297484 -0.0050035827 1.5653615 1.7501238e+09
29.154722 -34.691299 0.52711213 419 -0.06807819 -0.0061199539 1.5659636 1.7501238e+09
29.12664 -33.480293 0.49980956 420 -0.064089663 -0.0051292726 1.5691499 1.7501238e+09
29.09123 -32.241383 0.52941996 421 -0.060122874 -0.0085153878 1.5703373 1.7501238e+09
29.052687 -30.961014 0.55112094 422 -0.050804783 0.00091000227 1.5703213 1.7501238e+09
29.011639 -29.696678 0.56860149 423 -0.044289865 -0.0030012184 1.5737052 1.7501238e+09
28.958036 -28.400795 0.57302898 424 -0.043277659 0.0011088779 1.5744621 1.7501238e+09
28.923788 -27.10153 0.47178516 425 -0.048223615 -0.0061844829 1.5739644 1.7501238e+09
28.857094 -25.815191 0.55534703 426 -0.054335833 -0.016152605 1.5711662 1.7501238e+09
28.806032 -24.48522 0.6422919 427 -0.05022889 -0.0086709661 1.566276 1.7501238e+09
28.757977 -23.154324 0.67998528 428 -0.050557334 -0.0092258919 1.565738 1.7501238e+09
28.765514 -21.8717 0.56117207 429 -0.050119292 -0.013596935 1.561644 1.7501238e+09
28.755287 -20.646818 0.59007335 430 -0.049043436 -0.010082361 1.5525438 1.7501238e+09
28.782099 -19.519794 0.5500083 431 -0.049679257 -0.012352088 1.5381393 1.7501238e+09
28.794306 -18.462873 0.70365047 432 -0.039948035 -0.009410332 1.5281228 1.7501239e+09
28.854904 -17.207878 0.71211904 433 -0.036987707 -0.016795192 1.5155402 1.7501239e+09
28.893604 -16.172213 0.71174365 434 -0.042254642 -0.023080742 1.5058094 1.7501239e+09
28.954905 -15.091535 0.72805679 435 -0.036608983 -0.020737978 1.5003858 1.7501239e+09
28.988596 -14.008639 0.76361376 436 -0.043064177 -0.017814497 1.4998246 1.7501239e+09
29.035921 -12.94466 0.73501009 437 -0.040777974 -0.020650687 1.4993845 1.7501239e+09
29.068451 -11.586646 0.81213176 438 -0.039735746 -0.01758698 1.4996644 1.7501239e+09
29.112146 -10.519357 0.78855538 439 -0.044040944 -0.018520392 1.5022743 1.7501239e+09
29.153595 -9.4948645 0.7979328 440 -0.042402972 -0.017426718 1.5006579 1.7501239e+09
29.182722 -8.258626 0.83095425 441 -0.041702587 -0.013744822 1.5044566 1.7501239e+09
29.218182 -6.9896851 0.84352934 442 -0.036269683 -0.019011158 1.5123734 1.7501239e+09
29.198153 -5.7930875 0.87982553 443 -0.035272155 -0.018217335 1.5318699 1.7501239e+09
29.084621 -4.7906046 0.88020825 444 -0.034821432 -0.011606273 1.5725225 1.7501239e+09
28.846745 -3.742023 0.89645737 445 -0.030836664 -0.016935948 1.6476165 1.7501239e+09
28.377058 -2.557699 0.8810786 446 -0.028904401 -0.016128397 1.7704992 1.7501239e+09
27.837742 -1.6950351 0.88340092 447 -0.03035472 -0.010446126 1.8936061 1.7501239e+09
26.895569 -0.73189408 0.88506103 448 -0.033068877 -0.0019048001 2.0832825 1.7501239e+09
25.79826 -0.025948979 0.84020972 449 -0.039228488 0.016915297 2.2768345 1.7501239e+09
24.498388 0.50112867 0.76846176 450 -0.028740587 0.012559838 2.4968946 1.7501239e+09
23.512583 0.72937715 0.76421702 451 -0.024782276 0.019417977 2.6423879 1.7501239e+09
22.473131 0.86050737 0.73239046 452 -0.01775147 0.02356142 2.776221 1.7501239e+09
21.126974 0.93893135 0.70320231 453 -0.0091825752 0.033557631 2.9112632 1.7501239e+09
20.017681 0.91815251 0.66348648 454 -0.012084996 0.028256867 3.0020967 1.7501239e+09
18.872168 0.86770928 0.59089237 455 -0.011483078 0.029397964 3.0699406 1.7501239e+09
17.686674 0.79800272 0.59427339 456 -0.008360655 0.029693635 3.1166816 1.7501239e+09
16.477831 0.71899879 0.47761354 457 -0.014133994 0.028120611 3.1396608 1.7501239e+09
15.210993 0.64262605 0.50782537 458 -0.014212614 0.029100912 -3.1342452 1.7501239e+09
13.973739 0.58087784 0.42708614 459 -0.017446076 0.031049225 -3.1266968 1.7501239e+09
12.794794 0.52210319 0.44889313 460 -0.011488682 0.041402012 -3.1246846 1.7501239e+09
11.728518 0.48119941 0.28952503 461 -0.019045698 0.031435069 -3.1228473 1.7501239e+09
10.469073 0.40639964 0.30528542 462 -0.015415166 0.031495642 -3.1215234 1.7501239e+09
9.0913248 0.31164742 0.24302608 463 -0.017813874 0.036378812 -3.1140277 1.7501239e+09
7.717896 0.19249266 0.24929681 464 -0.017286196 0.033394307 -3.1033144 1.7501239e+09
6.5491138 0.086412176 0.16430005 465 -0.01921422 0.035701998 -3.0956841 1.7501239e+09
5.4154615 -0.022569325 0.14661102 466 -0.017958356 0.025049457 -3.0864418 1.7501239e+09
4.3951263 -0.12663732 0.13145593 467 -0.015048552 0.02686201 -3.0772347 1.7501239e+09
3.2123008 -0.26852304 0.097777292 468 -0.012135341 0.033622622 -3.0681837 1.7501239e+09
1.8686944 -0.44293118 0.015179187 469 -0.010407808 0.029098654 -3.0560589 1.7501239e+09
0.85573292 -0.58101737 0.01527519 470 -0.0085413996 0.031979654 -3.0487359 1.7501239e+09
-0.1548495 -0.71716952 -0.092892282 471 -0.0051475456 0.027321948 -3.045378 1.7501239e+09
-1.4747927 -0.91541564 -0.086873226 472 -0.015071549 0.029710641 -3.0452085 1.7501239e+09
-2.4705453 -1.0385306 -0.1080168 473 -0.012582748 0.034464367 -3.0466955 1.7501239e+09
-3.6185439 -1.1927539 -0.14080313 474 -0.016128777 0.041379999 -3.0500031 1.7501239e+09
-5.0369072 -1.3468746 -0.20438823 475 -0.012239304 0.035667602 -3.0594687 1.7501239e+09
-6.2401366 -1.4578792 -0.21579182 476 -0.013462354 0.027753355 -3.0722425 1.7501239e+09
-7.2712002 -1.5285856 -0.27318716 477 -0.017346375 0.035079442 -3.0884254 1.7501239e+09
-8.3680944 -1.5249084 -0.33173224 478 -0.016966417 0.036758959 -3.1218395 1.7501239e+09
